<?xml version="1.0" encoding="utf-8"?>
<!-- Generator: Adobe Illustrator 21.0.2, SVG Export Plug-In . SVG Version: 6.00 Build 0)  -->
<svg version="1.1" id="Layer_1" xmlns="http://www.w3.org/2000/svg" xmlns:xlink="http://www.w3.org/1999/xlink" x="0px" y="0px"
	 viewBox="0 0 266.8 129" style="enable-background:new 0 0 266.8 129;" xml:space="preserve">
<style type="text/css">
	.st0{fill:#024F6F;}
	.st1{fill:#004F6F;}
	.st2{fill:#018EA8;}
</style>
<g>
	<g>
		<path class="st0" d="M116.1,11.3c-0.8-0.4-0.7-1.2-0.7-1.2c0.1-0.4,0.5-0.7,0.9-0.8c0.2-0.1,0.4-0.1,0.7-0.1c0.3,0,0.5,0,0.8,0
			c1,0.1,2,0.3,2.9,0.7c0.9,0.4,1.7,0.9,2.5,1.6c0.8,0.6,1.4,1.4,2,2.2l1.9,2.5c0.9,1.2,1.8,2.3,2.8,3.5c-1.3,1.3-2.6,2.6-4,3.8
			c-2.1-1.5-4.2-3-6.3-4.5c-3.4-2.4-6.9-4.8-10.4-7.1c-3.5-2.3-7.1-4.6-10.8-6.6c-1.9-1-3.8-2-5.8-2.8c-1-0.4-2.1-0.8-3.4-0.9
			c-0.3,0-0.7,0-1.1,0c-0.1,0-0.2,0-0.3,0.1c-0.1,0-0.2,0-0.4,0.1c-0.2,0.1-0.2,0.1-0.3,0.1c-0.6,0.4-0.7,0.6-0.8,0.8
			c-0.1,0.2-0.1,0.3-0.1,0.3c-0.1,0.3-0.1,0.5-0.1,0.7c0,0.2,0,0.3,0,0.5c0,0.3,0.1,0.6,0.1,0.9c0.3,2.2,0.9,4.3,1.5,6.4
			c0.6,2.1,1.4,4.1,2.3,6c1.8,3.9,4,7.8,7.2,10.9c1.6,1.6,3.5,2.9,5.6,3.8c0.5,0.2,1.1,0.4,1.6,0.6c0.5,0.2,1.1,0.3,1.7,0.4
			c1.1,0.2,2.3,0.3,3.4,0.3c2.3,0,4.5-0.5,6.6-1.2c2.1-0.8,4-1.8,5.8-3c1.4-0.9,2.7-1.9,3.9-3c0.9,0.6,1.8,1.3,2.7,1.9l1.4,1
			c-2.5,1.8-5.1,3.5-7.8,5c-0.3-0.1-0.6-0.2-0.8-0.3c-1.1-0.3-2.2-0.6-3.3-0.6c-1.1,0-2.2,0.1-3.3,0.4c-0.6,0.2-1.1,0.4-1.7,0.9
			c-0.3,0.3-0.6,0.7-0.6,1.2c0,0.5,0.2,1,0.5,1.2c0.5,0.6,1.1,0.8,1.7,0.9c0.6,0.2,1.2,0.2,1.8,0.2c0.3,0,0.5,0,0.9-0.1
			c0.3-0.1,0.6-0.2,0.9-0.2c0.5-0.2,1-0.4,1.5-0.6c0.9-0.4,1.7-0.9,2.6-1.3c1.3,0.6,2.6,1.5,3.9,2.3c1.4,0.9,2.8,1.9,4,3
			c-0.3,0.4-0.6,0.8-0.8,1.2c-1.1,2-1.8,4.2-1.9,6.4c-0.1,1.1,0,2.3,0.2,3.4c0.3,1.2,0.7,2.3,1.6,3.3c0.1,0.1,0.2,0.2,0.4,0.4
			l0.2,0.2l0.2,0.2c0.3,0.2,0.6,0.4,1,0.6c0.4,0.2,1,0.2,1.5,0.1c0.5-0.1,0.8-0.4,1.1-0.6c0.1-0.1,0.2-0.2,0.4-0.3l0.1-0.1l0.1-0.1
			c0-0.1,0.1-0.1,0.1-0.1c0.3-0.3,0.4-0.5,0.6-0.8c0.3-0.6,0.6-1.1,0.7-1.7c0.3-1.2,0.4-2.3,0.4-3.4c0-1.1-0.1-2.2-0.3-3.3
			c0-0.3-0.1-0.5-0.2-0.8c-0.1-0.3-0.2-0.6-0.3-0.9c-0.2-0.6-0.5-1.1-0.8-1.6c-0.5-0.7-1-1.4-1.6-2c0,0,0,0,0,0
			c0.3-0.3,0.7-0.6,1.1-0.9c0.3-0.2,0.8-0.5,1.3-0.8c1.8-1,3.7-1.9,5.6-2.7c0.2-0.1,0.3-0.1,0.5-0.2c1.2,0.5,2.4,1,3.6,1.3
			c1.1,0.3,2.1,0.5,3.2,0.6c0.6,0,1.1,0,1.7-0.1c0.3-0.1,0.6-0.2,0.9-0.3c0.3-0.2,0.6-0.4,0.8-0.8c0.2-0.4,0.2-0.8,0.2-1.2
			c-0.1-0.4-0.2-0.7-0.4-1c-0.3-0.6-0.9-1-1.5-1.3c-0.6-0.2-1.2-0.3-1.8-0.3c-0.6,0-1.1,0-1.7,0.1c-1.8,0.2-3.5,0.7-5.1,1.3
			c-0.5-0.3-1-0.6-1.6-0.9c-0.9-0.5-1.7-1.1-2.5-1.7c-0.8-0.6-1.6-1.3-2.5-1.9c-0.6-0.4-1.1-0.9-1.7-1.3c0,0,0.1-0.1,0.1-0.1
			l3.3-2.5c1.4,1.1,2.8,2.2,4.4,3.1c1.9,1.1,3.9,2,6,2.6c2.1,0.6,4.4,0.9,6.6,0.8c2.2-0.1,4.5-0.6,6.6-1.5c2.1-0.9,3.9-2.3,5.6-3.8
			c1.6-1.5,3-3.3,4.2-5.1c1.2-1.8,2.2-3.8,3.1-5.8c0.9-2,1.6-4,2.2-6.1c0.3-1,0.6-2.1,0.8-3.2c0.1-0.5,0.2-1.1,0.3-1.6
			c0.1-0.6,0.2-1.1,0.2-1.7c0-0.2,0-0.3,0-0.6c0-0.1,0-0.1,0-0.2c0-0.1,0-0.2-0.1-0.5c-0.3-0.8-0.7-0.7-0.7-0.8l-0.2-0.1
			c-0.5-0.2-0.9-0.3-1.3-0.4c-0.8-0.1-1.4,0-2,0.1c-1.2,0.2-2.3,0.6-3.3,1c-2,0.8-3.9,1.9-5.8,2.9c-3.7,2.1-7.2,4.5-10.6,7
			c-1.7,1.2-3.4,2.4-5.1,3.7c-1.7,1.2-3.4,2.5-5.1,3.7c-1.7,1.3-3.4,2.5-5,3.8l-0.3,0.3c-1.5-1.3-3-2.6-4.4-4.1
			c-0.1-0.1-0.2-0.2-0.2-0.3c0.4-0.5,0.9-1,1.3-1.5c0.6-0.8,1.3-1.6,2-2.4c1.4-1.5,2.9-2.9,4.5-4.1c1.6-1.2,3.4-2.3,5.3-2.6
			c0.2,0,0.4-0.1,0.6,0c0.1,0,0.2,0,0.3,0.1l0.1,0l0.1,0.1c0.3,0.2,0.7,0.6,0.8,1c0.1,0.2,0.1,0.3-0.1,0.4c-0.1,0.1-0.4,0.2-0.6,0.1
			c-0.2,0-0.4-0.2-0.5-0.5c-0.1-0.2-0.1-0.5-0.1-0.8c0,0.3-0.1,0.5,0,0.8c0,0.3,0.2,0.6,0.5,0.7c0.1,0.1,0.3,0.1,0.5,0.1
			c0.1,0,0.3,0,0.5-0.1c0.2-0.1,0.3-0.2,0.4-0.4c0.1-0.2,0.1-0.4,0-0.5c-0.1-0.3-0.2-0.6-0.4-0.8c-0.2-0.2-0.3-0.5-0.6-0.7
			c0,0-0.1-0.1-0.1-0.1l-0.1,0c-0.1,0-0.2-0.1-0.2-0.1c-0.1-0.1-0.3-0.1-0.4-0.1c-0.3-0.1-0.6-0.1-0.9-0.1C144.1,8,143,8.3,142,8.7
			c-1,0.4-2,1-2.9,1.6c-1.8,1.2-3.4,2.7-4.8,4.3c-0.7,0.8-1.4,1.6-2.1,2.4c-0.4,0.4-0.7,0.9-1.1,1.3c-0.9-1-1.8-2.1-2.7-3.2l-2-2.4
			c-0.7-0.8-1.5-1.6-2.4-2.3c-1.8-1.3-4-2.1-6.2-2c-0.3,0-0.5,0-0.8,0.1c-0.3,0-0.6,0.1-0.9,0.2c-0.3,0.1-0.5,0.3-0.8,0.5
			c-0.1,0.1-0.2,0.2-0.3,0.4c-0.1,0.2-0.1,0.3-0.1,0.5C115,11.1,116.1,11.3,116.1,11.3z M120.7,27.1c-1.7,1-3.6,1.9-5.4,2.5
			c-1.9,0.6-3.8,1-5.7,0.9c-1,0-1.9-0.1-2.8-0.3c-0.5-0.1-0.9-0.2-1.4-0.4c-0.4-0.1-0.9-0.3-1.3-0.5c-1.7-0.8-3.3-1.9-4.7-3.3
			c-1.4-1.4-2.6-2.9-3.7-4.6c-1.1-1.7-2.1-3.5-2.9-5.3c-0.8-1.9-1.6-3.8-2.2-5.7c-0.6-1.9-1.1-3.9-1.4-5.9c0-0.1,0-0.2,0-0.3
			c0.8,0.1,1.7,0.4,2.6,0.7c1.9,0.7,3.7,1.6,5.5,2.6c3.6,2,7.2,4.2,10.7,6.4c3.5,2.2,7,4.6,10.5,6.9c2,1.3,3.9,2.7,5.8,4.1
			C123,25.7,121.9,26.4,120.7,27.1z M119,35.8c-0.5,0.2-0.9,0.4-1.4,0.6c-0.2,0.1-0.5,0.2-0.7,0.2c-0.1,0-0.4,0-0.6,0.1
			c-0.5,0-0.9,0-1.4-0.1c-0.4-0.1-0.8-0.3-1-0.5c-0.1-0.1-0.1-0.2-0.1-0.2c0,0,0-0.1,0.1-0.2c0.2-0.2,0.6-0.4,1.1-0.5
			c0.9-0.3,1.9-0.3,2.9-0.4c0.8,0,1.6,0.1,2.4,0.4C119.9,35.3,119.5,35.5,119,35.8z M132.8,44.1c0.2,0.4,0.4,0.8,0.6,1.2
			c0.1,0.2,0.1,0.4,0.2,0.6c0,0.2,0.1,0.5,0.1,0.7c0.3,2,0.3,4-0.2,5.8c-0.1,0.4-0.3,0.8-0.5,1.2c-0.1,0.2-0.2,0.3-0.3,0.4
			c0,0-0.1,0.1-0.1,0.1l-0.1,0.1c0,0,0,0,0,0c-0.1,0.1-0.2,0.1-0.2,0.2c-0.2,0.1-0.3,0.2-0.3,0.2l0,0c0,0,0,0,0,0
			c-0.1,0-0.2-0.1-0.4-0.2l-0.1-0.1l-0.1-0.1c-0.1-0.1-0.1-0.1-0.2-0.2c-0.5-0.6-0.9-1.4-1.1-2.3c-0.2-0.9-0.3-1.9-0.2-2.8
			c0.1-1.9,0.6-3.9,1.5-5.6c0.1-0.3,0.3-0.5,0.5-0.8C132.1,43,132.5,43.5,132.8,44.1z M146.7,34.9c1-0.1,2-0.2,2.8,0.1
			c0.4,0.1,0.7,0.4,0.9,0.7c0.1,0.2,0.2,0.4,0.2,0.5c0,0.2,0,0.3,0,0.3c-0.1,0.2-0.4,0.4-0.9,0.5c-0.4,0.1-0.9,0.1-1.4,0.1
			c-1-0.1-2-0.3-2.9-0.6c-0.7-0.2-1.3-0.5-2-0.8C144.4,35.3,145.5,35,146.7,34.9z M133.6,31.7c0.9,0.6,1.7,1.2,2.6,1.9
			c0.9,0.6,1.8,1.2,2.7,1.7c0.1,0.1,0.2,0.1,0.4,0.2c-1.7,0.7-3.3,1.4-4.9,2.2c-0.5,0.3-0.9,0.5-1.5,0.8c-0.5,0.3-1,0.7-1.4,1.1
			c0,0-0.1,0.1-0.1,0.1c-1.4-1.1-2.9-2.1-4.3-3c-1-0.6-2.1-1.3-3.2-1.9c2.6-1.5,5-3.1,7.5-4.8L133.6,31.7z M134.7,25.5
			c-0.8,0.6-1.7,1.3-2.5,1.9c-0.2,0.1-0.4,0.3-0.5,0.4c-0.6-0.5-1.3-1-1.9-1.4c-0.8-0.6-1.5-1.1-2.3-1.7c1.2-1.2,2.4-2.4,3.5-3.7
			c0,0,0.1,0.1,0.1,0.1c1.3,1.4,2.6,2.8,4.1,4.1L134.7,25.5z M173,6.7c-0.2,1-0.5,2-0.7,2.9c-0.6,2-1.2,3.9-2,5.7
			c-1.6,3.7-3.7,7.3-6.5,10c-1.4,1.4-3,2.5-4.7,3.4c-1.7,0.8-3.6,1.3-5.6,1.5c-2,0.1-3.9-0.1-5.8-0.5c-1.9-0.5-3.8-1.3-5.5-2.2
			c-1.3-0.7-2.5-1.5-3.7-2.4c1.7-1.2,3.4-2.4,5.1-3.6c6.8-4.9,13.9-9.4,21.2-13.3c1.8-0.9,3.7-1.9,5.5-2.6c0.9-0.4,1.9-0.7,2.7-0.8
			c0.2,0,0.4-0.1,0.5-0.1c0,0.2-0.1,0.4-0.1,0.6C173.2,5.7,173.1,6.2,173,6.7z"/>
		<path class="st0" d="M160.1,28.3c-0.1-0.6-0.2-1.1-0.4-1.7c-0.2-0.6-0.4-1.2-0.8-1.8c-0.4-0.6-0.9-1.1-1.5-1.4
			c-0.6-0.4-1.2-0.6-1.9-0.7c-1.3-0.3-2.5-0.2-3.6,0c-1.1,0.2-2.2,0.5-3.2,0.9c-2,0.8-3.9,1.7-5.7,2.8c-1.8,1.1-3.5,2.2-5.2,3.5
			c-0.9,0.6-1.6,1.2-2.5,1.7c-0.8,0.5-1.7,1-2.5,1.5c-0.3,0.2-0.7,0.4-1.1,0.5c-0.6-0.4-1.3-0.7-1.9-1.1c-0.8-0.5-1.6-1.1-2.5-1.7
			c-1.7-1.2-3.4-2.4-5.2-3.5c-1.8-1.1-3.7-2-5.7-2.8c-1-0.4-2.1-0.7-3.2-0.9c-1.1-0.2-2.3-0.3-3.6,0c-0.6,0.1-1.3,0.4-1.9,0.8
			c-0.6,0.4-1.1,0.9-1.5,1.5c-0.4,0.6-0.6,1.2-0.8,1.8c-0.2,0.6-0.3,1.1-0.4,1.7c-0.4,2.2-0.3,4.4-0.1,6.5c0.2,2.1,0.6,4.2,1.2,6.3
			c0.6,2,1.3,4.1,2.3,6c0.5,1,1.1,1.9,1.9,2.8c0.4,0.4,0.8,0.9,1.3,1.2c0.5,0.4,1.1,0.7,1.9,0.9c0.4,0.1,0.8,0.1,1.1,0.1
			c0.2,0,0.4-0.1,0.6-0.1c0.1,0,0.2-0.1,0.3-0.1l0.2-0.1c0.5-0.2,1-0.5,1.5-0.7c1-0.5,1.9-1.2,2.7-1.9c0.8-0.7,1.6-1.5,2.2-2.4
			c0.6-0.9,1.2-1.8,1.6-2.9c0.4-1,0.6-2.2,0.4-3.3c-0.1-0.7-0.3-1.4-0.7-2.1c1.6-0.3,3.2-0.7,4.8-1.3c1.1-0.4,2.2-0.8,3.3-1.3
			c1.7,0.9,3.4,1.6,5.2,2.2c1.2,0.4,2.5,0.7,3.7,1c-0.1,0.5-0.2,1-0.2,1.5c0,1.2,0.4,2.2,0.9,3.2c0.5,1,1.2,1.8,1.9,2.6
			c0.7,0.8,1.5,1.5,2.4,2.2c0.9,0.7,1.8,1.2,2.7,1.7c0.5,0.3,1,0.5,1.5,0.7c0.7,0.3,1.5,0.3,2.2,0.1c0.7-0.2,1.3-0.6,1.8-1
			c0.5-0.4,0.9-0.8,1.3-1.3c0.7-0.9,1.3-1.9,1.8-2.8c1-1.9,1.7-4,2.2-6c0.5-2,0.9-4.1,1.1-6.3C160.5,32.7,160.5,30.5,160.1,28.3z
			 M127.5,35.8c-1.7,0.7-3.4,1.4-5.1,2.1c-0.6-0.6-1.3-1-2-1.4c-0.9-0.5-1.9-0.8-2.9-1l0,0.1c0.9,0.4,1.9,0.8,2.7,1.4
			c0.5,0.4,1,0.8,1.5,1.2c-1.8,0.7-3.6,1.3-5.5,1.9l0,0.2c2.1,0,4.2-0.2,6.2-0.5c0.1,0,0.2,0,0.3-0.1c0.3,0.6,0.5,1.3,0.5,2
			c0,0.9-0.2,1.8-0.6,2.7c-0.8,1.7-2.1,3.2-3.7,4.3c-0.8,0.6-1.6,1.1-2.4,1.5c-0.4,0.2-0.9,0.4-1.3,0.5l-0.2,0.1c0,0-0.1,0-0.1,0
			c-0.1,0-0.1,0-0.2,0c-0.1,0-0.3,0-0.4,0c-0.5-0.1-1.2-0.7-1.7-1.4c-0.6-0.7-1.1-1.5-1.5-2.4c-0.9-1.7-1.6-3.6-2.1-5.5
			c-0.5-1.9-0.9-3.8-1.1-5.8c-0.2-1.9-0.2-3.9,0.1-5.8c0.1-0.5,0.2-0.9,0.3-1.3c0.1-0.4,0.3-0.7,0.5-1c0.4-0.6,0.9-0.9,1.6-1.1
			c0.7-0.2,1.6-0.1,2.5,0c0.9,0.2,1.8,0.4,2.7,0.8c1.8,0.7,3.6,1.6,5.3,2.6c1.7,1,3.4,2.1,5,3.3c0.8,0.6,1.6,1.3,2.5,1.8
			c0.2,0.1,0.3,0.2,0.5,0.3C128.4,35.4,127.9,35.6,127.5,35.8z M157.5,34.6c-0.2,2-0.5,3.9-1,5.8c-0.5,1.9-1.1,3.8-2,5.5
			c-0.4,0.9-0.9,1.7-1.4,2.4c-0.5,0.7-1.2,1.3-1.7,1.5c-0.3,0.1-0.5,0.1-0.8,0c-0.4-0.1-0.9-0.3-1.3-0.5c-0.9-0.4-1.7-0.8-2.5-1.4
			c-1.6-1.1-3.1-2.4-4.2-3.9c-0.5-0.8-0.9-1.6-1-2.5c-0.1-0.4,0-0.8,0-1.2c0.4,0.1,0.9,0.2,1.3,0.2c2.1,0.3,4.1,0.6,6.2,0.5l0-0.2
			c-2.3-0.7-4.5-1.5-6.7-2.3c0.5-0.6,1.2-1.2,1.9-1.6c0.9-0.5,1.8-0.9,2.8-1.3l0-0.1c-1,0.2-2,0.5-3,0.9c-0.9,0.4-1.8,1-2.5,1.8
			c-1.3-0.5-2.6-1-3.8-1.6c-1-0.5-2-0.9-3-1.4c0.7-0.4,1.4-0.9,2.1-1.3c0.9-0.6,1.7-1.3,2.5-1.8c1.6-1.2,3.3-2.3,5-3.3
			c1.7-1,3.5-1.9,5.3-2.6c0.9-0.3,1.8-0.6,2.7-0.8c0.9-0.2,1.8-0.2,2.5-0.1c0.7,0.2,1.3,0.5,1.7,1.1c0.2,0.3,0.3,0.6,0.5,1
			c0.1,0.4,0.2,0.9,0.3,1.3C157.7,30.7,157.7,32.6,157.5,34.6z"/>
	</g>
	<g>
		<g>
			<path class="st1" d="M68.9,123.4v-6.1c0-2.7,1.7-4.2,4.2-4.2c2.6,0,4.2,1.4,4.3,4.1h-1.3c-0.2-2-1.2-2.9-3-2.9
				c-1.7,0-2.8,1-2.8,3.1v6.1c0,2.1,1.2,3.1,2.9,3.1c1.8,0,2.8-1,3-2.9h1.3c-0.2,2.6-1.8,4.1-4.4,4.1
				C70.7,127.6,68.9,126.1,68.9,123.4z"/>
			<path class="st1" d="M82.5,123v-5.4c0-2.8,1.7-4.6,4.5-4.6s4.5,1.8,4.5,4.6v5.4c0,2.8-1.7,4.6-4.5,4.6S82.5,125.9,82.5,123z
				 M90.1,123v-5.4c0-2.2-1.1-3.4-3.1-3.4c-2,0-3.1,1.2-3.1,3.4v5.4c0,2.2,1.1,3.4,3.1,3.4C89.1,126.4,90.1,125.2,90.1,123z"/>
			<path class="st1" d="M96.5,123.8h1.4c0.1,1.8,1.2,2.7,2.9,2.7c1.9,0,2.8-1.1,2.8-2.6c0-3.3-6.9-3.3-6.9-7.4
				c0-1.9,1.6-3.4,4.1-3.4c2.5,0,4,1.6,4.1,3.8h-1.4c-0.1-1.8-1.2-2.6-2.7-2.6c-1.7,0-2.7,0.9-2.7,2.2c0,3.3,6.9,3.1,6.9,7.4
				c0,1.9-1.5,3.8-4.2,3.8C98.2,127.6,96.5,126.1,96.5,123.8z"/>
			<path class="st1" d="M117.4,114.5H114v12.9h-1.4v-12.9h-3.4v-1.2h8.3V114.5z"/>
			<path class="st1" d="M127.6,124.1h-5l-0.9,3.3h-1.5l4.1-14.1h1.5l4.1,14.1h-1.5L127.6,124.1z M127.3,123l-1.6-5.8
				c-0.2-0.9-0.5-1.9-0.5-2.2h0c-0.1,0.3-0.3,1.3-0.5,2.2l-1.6,5.8H127.3z"/>
			<path class="st1" d="M143,121.9h-1.7v5.5h-1.4v-14.1h3.6c2.9,0,4.5,1.5,4.5,4.1c0,2.5-1.3,4-3.4,4.4l3.8,5.6h-1.6L143,121.9z
				 M141.3,120.7h2.2c2,0,3.1-1.1,3.1-3.2c0-2-1.1-3-3.1-3h-2.2V120.7z"/>
			<path class="st1" d="M155,113.3v14.1h-1.4v-14.1H155z"/>
			<path class="st1" d="M160.9,123.4v-6.1c0-2.7,1.7-4.2,4.2-4.2c2.6,0,4.2,1.4,4.3,4.1h-1.3c-0.2-2-1.2-2.9-3-2.9
				c-1.7,0-2.8,1-2.8,3.1v6.1c0,2.1,1.2,3.1,2.9,3.1c1.8,0,2.8-1,3-2.9h1.3c-0.2,2.6-1.8,4.1-4.4,4.1
				C162.7,127.6,160.9,126.1,160.9,123.4z"/>
			<path class="st1" d="M180.5,124.1h-5l-0.9,3.3h-1.5l4.1-14.1h1.5l4.1,14.1h-1.5L180.5,124.1z M180.2,123l-1.6-5.8
				c-0.2-0.9-0.5-1.9-0.5-2.2h0c-0.1,0.3-0.3,1.3-0.5,2.2l-1.6,5.8H180.2z"/>
		</g>
		<path class="st2" d="M5.4,80v15.3h-4V73.1h5.3L16,86.9V73.1H20v22.2H16L5.4,80z"/>
		<path class="st2" d="M21.6,95.2l9.5-22.1h4.7l9.4,22.1h-4.5l-2.1-4.9H28l-2.2,4.9H21.6z M33.5,77.3L30,85.8h7L33.5,77.3L33.5,77.3
			z"/>
		<path class="st2" d="M50.6,86.6l-7.7-13.5h5.2l4.9,8.7l4.9-8.7H63l-7.8,13.6v8.5h-4.6V86.6z"/>
		<path class="st2" d="M60.6,95.2l9.5-22.1h4.7l9.4,22.1h-4.5l-2.1-4.9H67l-2.2,4.9H60.6z M72.5,77.3L69,85.8h7L72.5,77.3L72.5,77.3
			z"/>
		<path class="st2" d="M98.3,87.1l5.9,8.2h-5.7l-5.3-8H91v8h-4.7V73.1h9.5c5.3,0,7.3,3.5,7.3,7.1c0,3-1.5,6-5,6.8H98.3z M91,76.9
			v6.7h3.6c2.2,0,4-0.5,4-3.3c0-2.9-1.8-3.3-4-3.3H91z"/>
		<path class="st2" d="M105.6,95.2l9.5-22.1h4.7l9.4,22.1h-4.5l-2.1-4.9H112l-2.2,4.9H105.6z M117.5,77.3l-3.5,8.5h7L117.5,77.3
			L117.5,77.3z"/>
		<path class="st2" d="M139.4,88.7c0.5,2.9,2.9,3.3,4.7,3.3c1.6,0,4.1-0.5,4.1-2.8c0-4.7-12.5-1.7-12.5-9.9c0-4.6,4.1-6.7,7.9-6.7
			c4.4,0,8.4,2,8.4,7.1l-4.5-0.7c-0.6-2.6-2.7-2.7-4.2-2.7c-1.5,0-3.2,0.7-3.2,2.5c0,1.6,1,2,6.3,3.3c1.6,0.4,6.2,1.4,6.2,6.4
			c0,4.1-3,7.1-8.7,7.1c-4.7,0-8.9-2.4-8.9-7.9L139.4,88.7z"/>
		<path class="st2" d="M155.3,73.1h9.5c5.3,0,7.3,3.5,7.3,7.1c0,3.6-2,7.1-7.3,7.1H160v7.9h-4.6V73.1z M160,83.5h3.6
			c2.1,0,4.1-0.5,4.1-3.3c0-2.8-1.9-3.3-4.1-3.3H160V83.5z"/>
		<path class="st2" d="M186.9,87.1l5.9,8.2h-5.7l-5.3-8h-2.3v8H175V73.1h9.5c5.3,0,7.3,3.5,7.3,7.1c0,3-1.5,6-5,6.8H186.9z
			 M179.6,76.9v6.7h3.6c2.2,0,4-0.5,4-3.3c0-2.9-1.8-3.3-4-3.3H179.6z"/>
		<path class="st2" d="M196.2,73.1h4.6v22.1h-4.6V73.1z"/>
		<path class="st2" d="M208.5,80v15.3h-4V73.1h5.3l9.4,13.8V73.1h3.9v22.2h-3.9L208.5,80z"/>
		<path class="st2" d="M245.4,89.7c-1.8,3.6-5.4,5.9-9.5,5.9c-6,0-10.9-5.1-10.9-11.5c0-6.3,4.9-11.4,10.9-11.4
			c4.1,0,7.6,2.4,9.5,5.8c-1.9,1-2,1.1-4.1,2.2c-1.1-2-3.1-3.3-5.4-3.3c-3.5,0-6.4,3-6.4,6.7c0,3.7,2.8,6.7,6.4,6.7
			c2.4,0,4.7-1.2,5.6-3.3h-0.5c-0.9,0-3.1,0-4.3,0c-0.6,0-0.8,0-0.8,0v-4.1c3,0,7.1,0,10.7,0C246.6,84.1,246.5,88.2,245.4,89.7z"/>
		<path class="st2" d="M252.2,88.7c0.5,2.9,2.9,3.3,4.7,3.3c1.6,0,4.1-0.5,4.1-2.8c0-4.7-12.5-1.7-12.5-9.9c0-4.6,4.1-6.7,7.9-6.7
			c4.4,0,8.4,2,8.4,7.1l-4.5-0.7c-0.6-2.6-2.7-2.7-4.2-2.7c-1.5,0-3.2,0.7-3.2,2.5c0,1.6,1,2,6.3,3.3c1.6,0.4,6.2,1.4,6.2,6.4
			c0,4.1-3,7.1-8.7,7.1c-4.7,0-8.9-2.4-8.9-7.9L252.2,88.7z"/>
	</g>
</g>
</svg>
